<svg width="20" height="18" viewBox="0 0 20 18" fill="none" xmlns="http://www.w3.org/2000/svg">
<path d="M7 8C9.20914 8 11 6.20914 11 4C11 1.79086 9.20914 0 7 0C4.79086 0 3 1.79086 3 4C3 6.20914 4.79086 8 7 8Z" fill="#3366FF"/>
<path d="M15 10C16.6569 10 18 8.65685 18 7C18 5.34315 16.6569 4 15 4C13.3431 4 12 5.34315 12 7C12 8.65685 13.3431 10 15 10Z" fill="#3366FF"/>
<path d="M19 17C19.5523 17 20 16.5523 20 16C19.9984 14.0933 18.9125 12.3535 17.2003 11.5145C15.4882 10.6754 13.4479 10.8831 11.94 12.05C9.93708 10.0549 6.93071 9.46048 4.31923 10.5431C1.70774 11.6258 0.0038243 14.173 0 17C0 17.5523 0.447715 18 1 18H13C13.5523 18 14 17.5523 14 17" fill="#3366FF"/>
</svg>
